# xmcd
#
# Track frame offsets: 
#        150
#        21069
#        41589
#        66844
#        85168
#        107985
#        134756
#        145972
#        157423
#        176883
#
# Disc length: 2480 seconds
#
# Revision: 0
# Processed by: cddbd v1.4PL0 Copyright (c) Steve Scherf et al.
# Submitted via: ExactAudioCopy v0.95a3
#
DISCID=9709ae0a
DTITLE=Various Artist - Pickin' On U2
DYEAR=2003
DGENRE=Bluegrass
TTITLE0=Even Better Than The Real Thing
TTITLE1=Stay
TTITLE2=I Will Follow
TTITLE3=Beautiful Day
TTITLE4=Sunday Bloody Sunday
TTITLE5=New Year's Day
TTITLE6=October
TTITLE7=Party Girl
TTITLE8=Angel Of Harlem
TTITLE9=The Boys From Ireland
EXTD=
EXTT0=
EXTT1=
EXTT2=
EXTT3=
EXTT4=
EXTT5=
EXTT6=
EXTT7=
EXTT8=
EXTT9=
PLAYORDER=
